<svg xmlns="http://www.w3.org/2000/svg" xmlns:xlink="http://www.w3.org/1999/xlink" width="60" height="60" viewBox="0 0 60 60">
  <defs>
    <clipPath id="clip-path">
      <rect id="사각형_22618" data-name="사각형 22618" width="60" height="58.726"/>
    </clipPath>
    <clipPath id="clip-path-2">
      <path id="패스_8736" data-name="패스 8736" d="M77.125,29.3a2.206,2.206,0,1,0,2.205-2.206A2.206,2.206,0,0,0,77.125,29.3" transform="translate(-77.125 -27.091)" fill="#35ade3"/>
    </clipPath>
    <clipPath id="clip-path-3">
      <path id="패스_8737" data-name="패스 8737" d="M89.521,29.3a2.206,2.206,0,1,0,2.206-2.206A2.206,2.206,0,0,0,89.521,29.3" transform="translate(-89.521 -27.091)" fill="#35ade3"/>
    </clipPath>
    <clipPath id="clip-path-4">
      <path id="패스_8738" data-name="패스 8738" d="M101.919,29.3a2.206,2.206,0,1,0,2.206-2.206,2.206,2.206,0,0,0-2.206,2.206" transform="translate(-101.919 -27.091)" fill="#35ade3"/>
    </clipPath>
  </defs>
  <g id="그룹_49462" data-name="그룹 49462" transform="translate(-300 -1690)">
    <rect id="사각형_22542" data-name="사각형 22542" width="60" height="60" transform="translate(300 1690)" fill="none"/>
    <g id="그룹_49461" data-name="그룹 49461" transform="translate(300 1691)">
      <g id="그룹_49454" data-name="그룹 49454" transform="translate(0 0)">
        <g id="그룹_49453" data-name="그룹 49453" clip-path="url(#clip-path)">
          <path id="패스_8734" data-name="패스 8734" d="M33.784,62.386a17.191,17.191,0,0,1-14.2-7.169L3.077,31.953a17.712,17.712,0,0,1-.31-19.493l1.9-3.112a4.971,4.971,0,0,1,3.32-2.3,4.6,4.6,0,0,1,4.664,1.832l7.167,10.1A4.589,4.589,0,0,1,20.3,23.38a4.935,4.935,0,0,1-3.682,3.012l-2.678.475L27.807,46.4l1.306-2.324a4.956,4.956,0,0,1,3.41-2.449,4.6,4.6,0,0,1,4.664,1.832l7.33,10.33h0a4.531,4.531,0,0,1,.511,4.335,4.944,4.944,0,0,1-3.575,3.046l-3.531.765c-.177.038-.352.074-.529.107a19.479,19.479,0,0,1-3.608.34M8.894,10.764a1.107,1.107,0,0,0-.206.02,1.166,1.166,0,0,0-.78.541l-1.9,3.114a13.923,13.923,0,0,0,.166,15.317L22.68,53.02a13.755,13.755,0,0,0,14.009,5.294c.143-.027.285-.055.428-.086l3.53-.765a1.157,1.157,0,0,0,.84-.709.768.768,0,0,0-.067-.763h0l-7.33-10.33a.831.831,0,0,0-.864-.3,1.166,1.166,0,0,0-.8.577l-1.476,2.628A3.689,3.689,0,0,1,27.933,50.4a3.286,3.286,0,0,1-2.89-1.332L10.514,28.6a3.309,3.309,0,0,1-.342-3.17,3.671,3.671,0,0,1,2.747-2.233l3.021-.536a1.129,1.129,0,0,0,.843-.7.81.81,0,0,0-.062-.776L9.553,11.08a.783.783,0,0,0-.659-.316" transform="translate(0 -3.659)"/>
          <path id="패스_8735" data-name="패스 8735" d="M72.135,34.543a15.107,15.107,0,0,1-1.835-.1,1.9,1.9,0,0,1-.081-3.753,2.67,2.67,0,0,0,1.717-1.03,15.3,15.3,0,1,1,10.5.034c-2.441,4.236-7.551,4.849-10.3,4.849M77.234,3.8a11.5,11.5,0,0,0-2.191,22.8,1.9,1.9,0,0,1,1.438,2.478c-.131.385-.275.744-.427,1.078a5.4,5.4,0,0,0,3.321-2.8,1.9,1.9,0,0,1,1.182-1.035A11.505,11.505,0,0,0,77.234,3.8" transform="translate(-32.535 0)"/>
        </g>
      </g>
      <g id="그룹_49456" data-name="그룹 49456" transform="translate(36.608 12.859)">
        <g id="그룹_49455" data-name="그룹 49455" clip-path="url(#clip-path-2)">
          <rect id="사각형_22619" data-name="사각형 22619" width="4.411" height="4.411" transform="translate(0 0)" fill="#35ade3"/>
        </g>
      </g>
      <g id="그룹_49458" data-name="그룹 49458" transform="translate(42.492 12.859)">
        <g id="그룹_49457" data-name="그룹 49457" clip-path="url(#clip-path-3)">
          <rect id="사각형_22620" data-name="사각형 22620" width="4.412" height="4.411" transform="translate(0 0)" fill="#35ade3"/>
        </g>
      </g>
      <g id="그룹_49460" data-name="그룹 49460" transform="translate(48.377 12.859)">
        <g id="그룹_49459" data-name="그룹 49459" clip-path="url(#clip-path-4)">
          <rect id="사각형_22621" data-name="사각형 22621" width="4.412" height="4.411" transform="translate(0 0)" fill="#35ade3"/>
        </g>
      </g>
    </g>
  </g>
</svg>
