<svg xmlns="http://www.w3.org/2000/svg" xmlns:xlink="http://www.w3.org/1999/xlink" width="60" height="60" viewBox="0 0 60 60">
  <defs>
    <clipPath id="clip-path">
      <rect id="사각형_22622" data-name="사각형 22622" width="60" height="43.565"/>
    </clipPath>
    <clipPath id="clip-path-2">
      <path id="패스_8740" data-name="패스 8740" d="M82.463,58.634a9.925,9.925,0,1,0,9.925-9.924,9.925,9.925,0,0,0-9.925,9.924" transform="translate(-82.463 -48.71)" fill="#35ade3"/>
    </clipPath>
  </defs>
  <g id="그룹_49470" data-name="그룹 49470" transform="translate(-1020 -1690)">
    <rect id="사각형_22617" data-name="사각형 22617" width="60" height="60" transform="translate(1020 1690)" fill="none"/>
    <g id="그룹_49469" data-name="그룹 49469" transform="translate(1020 1698)">
      <g id="그룹_49464" data-name="그룹 49464" transform="translate(0 0)">
        <g id="그룹_49463" data-name="그룹 49463" clip-path="url(#clip-path)">
          <path id="패스_8739" data-name="패스 8739" d="M54.578,1.913a1.915,1.915,0,0,0-.036-.353c0-.015-.009-.028-.012-.043a1.9,1.9,0,0,0-.069-.244c-.005-.016-.014-.029-.02-.044-.016-.038-.034-.075-.052-.112a2.043,2.043,0,0,0-.109-.2c-.021-.034-.043-.067-.066-.1a1.935,1.935,0,0,0-.16-.195c-.02-.021-.038-.045-.06-.065a1.929,1.929,0,0,0-.26-.215c-.02-.014-.042-.024-.063-.037a1.842,1.842,0,0,0-.234-.127c-.036-.017-.073-.03-.11-.044A1.927,1.927,0,0,0,53.1.061c-.037-.009-.072-.019-.109-.025A1.938,1.938,0,0,0,52.635,0H1.948a1.934,1.934,0,0,0-.353.036c-.037.007-.073.017-.109.025a1.963,1.963,0,0,0-.23.072c-.037.014-.074.028-.11.044A1.882,1.882,0,0,0,.911.3C.891.317.868.328.848.342a1.929,1.929,0,0,0-.26.215C.566.577.548.6.528.622a1.871,1.871,0,0,0-.16.195C.344.85.323.883.3.917a1.949,1.949,0,0,0-.11.2c-.018.037-.036.074-.051.112-.006.015-.015.029-.02.044a1.92,1.92,0,0,0-.069.244c0,.015-.009.028-.012.043A1.915,1.915,0,0,0,0,1.913c0,.012,0,.022,0,.034V35.826a1.948,1.948,0,0,0,1.948,1.948H52.635a1.948,1.948,0,0,0,1.948-1.948V1.948c0-.012,0-.022,0-.034M50.687,26.688,38.493,16.58,50.687,6.171ZM47.353,3.9,27.291,21.021,7.229,3.9ZM3.9,6.171,16.089,16.58,3.9,26.688Zm0,27.707V31.747l15.2-12.6,6.931,5.917a1.948,1.948,0,0,0,2.528,0l6.931-5.917,15.2,12.6v2.131Z" transform="translate(0 0)"/>
        </g>
      </g>
      <g id="그룹_49466" data-name="그룹 49466" transform="translate(40.151 23.717)">
        <g id="그룹_49465" data-name="그룹 49465" clip-path="url(#clip-path-2)">
          <rect id="사각형_22623" data-name="사각형 22623" width="19.849" height="19.849" transform="translate(0 0)" fill="#35ade3"/>
        </g>
      </g>
      <g id="그룹_49468" data-name="그룹 49468" transform="translate(0 0)">
        <g id="그룹_49467" data-name="그룹 49467" clip-path="url(#clip-path)">
          <path id="패스_8741" data-name="패스 8741" d="M94.53,69.68a2.047,2.047,0,0,1-.218-.012,1.948,1.948,0,0,1-1.349-.779l-2.4-3.243A1.948,1.948,0,0,1,93.7,63.332l1.149,1.556L99.3,61.066a1.948,1.948,0,0,1,2.539,2.954L95.8,69.209a1.946,1.946,0,0,1-1.269.471" transform="translate(-46.275 -31.092)" fill="#fff"/>
        </g>
      </g>
    </g>
  </g>
</svg>
