<svg xmlns="http://www.w3.org/2000/svg" xmlns:xlink="http://www.w3.org/1999/xlink" width="30" height="30" viewBox="0 0 30 30">
  <defs>
    <clipPath id="clip-path">
      <rect id="사각형_19262" data-name="사각형 19262" width="26.986" height="29.642" fill="#fff"/>
    </clipPath>
  </defs>
  <g id="그룹_48473" data-name="그룹 48473" transform="translate(-4539.851 -573.803)">
    <rect id="사각형_19180" data-name="사각형 19180" width="30" height="30" transform="translate(4539.851 573.803)" fill="none"/>
    <g id="그룹_14807" data-name="그룹 14807" transform="translate(4540.988 574.011)">
      <g id="그룹_14806" data-name="그룹 14806" clip-path="url(#clip-path)">
        <path id="패스_6030" data-name="패스 6030" d="M6.7,11.4s-.679-.875,1.059-2.079l2.315-1.7A1.293,1.293,0,0,0,10,6.093L5.624.225A1.328,1.328,0,0,0,4.35.137L2.194,1.752A4.574,4.574,0,0,0,.229,4.684,14.553,14.553,0,0,0,2.121,14.778a40.013,40.013,0,0,0,6.913,9.6s3.635,3.813,7.537,4.894c0,0,3.029,1.152,5.321-.581l2.325-1.756s.6-.608-.245-1.649l-4.216-5.666a1.032,1.032,0,0,0-1.377-.307l-2.751,2.051a1.822,1.822,0,0,1-1.977-.158S8.243,15.7,6.7,11.4" transform="translate(0 0)" fill="#fff"/>
        <path id="패스_6031" data-name="패스 6031" d="M298.9,23.19s-1.775-.175-1.442-1.6c0,0,.368-1.338,1.986-.747a11.324,11.324,0,0,1,8.124,13.219,1.159,1.159,0,0,1-1.311,1.055s-1.041-.014-1.014-1.406a9.284,9.284,0,0,0-1.19-6.774A9.019,9.019,0,0,0,298.9,23.19" transform="translate(-280.848 -19.537)" fill="#fff"/>
        <path id="패스_6032" data-name="패스 6032" d="M272.971,102.488a1.319,1.319,0,0,1-.8-1.508,1.239,1.239,0,0,1,1.7-.722,6.969,6.969,0,0,1,4.3,3.235,6.684,6.684,0,0,1,.985,4.864,1.277,1.277,0,0,1-1.362,1.295s-1.016-.029-1.055-1.311a4.625,4.625,0,0,0-.773-3.9,5.351,5.351,0,0,0-2.984-1.953" transform="translate(-256.961 -94.575)" fill="#fff"/>
      </g>
    </g>
  </g>
</svg>
