<svg xmlns="http://www.w3.org/2000/svg" xmlns:xlink="http://www.w3.org/1999/xlink" width="155" height="60" viewBox="0 0 155 60">
  <defs>
    <clipPath id="clip-path">
      <rect id="사각형_1" data-name="사각형 1" width="154.306" height="59.652" fill="none"/>
    </clipPath>
  </defs>
  <g id="그룹_48474" data-name="그룹 48474" transform="translate(-50 -154)">
    <rect id="사각형_21218" data-name="사각형 21218" width="155" height="60" transform="translate(50 154)" fill="none"/>
    <g id="그룹_2" data-name="그룹 2" transform="translate(50 154)">
      <g id="그룹_1" data-name="그룹 1" clip-path="url(#clip-path)">
        <path id="패스_1" data-name="패스 1" d="M639.05,344.392c.111,0,.169.058.169.2s-.058.2-.169.2h-2.168v1.37c0,.14-.076.192-.216.192s-.216-.052-.216-.192v-1.37h-2.2c-.1,0-.163-.058-.163-.2s.058-.2.163-.2Zm-3.4-.7a1.251,1.251,0,1,1,0-2.5h2a1.25,1.25,0,1,1,0,2.5Zm.023-2.1a.854.854,0,1,0,0,1.708h1.952a.854.854,0,1,0,0-1.708Z" transform="translate(-540.03 -290.58)" fill="#35ade3"/>
        <path id="패스_2" data-name="패스 2" d="M709.416,345.18c-.134,0-.2-.058-.2-.2v-2.3c0-.146.058-.2.2-.2h2.372V340.64h-2.4c-.111,0-.169-.064-.169-.2s.058-.2.169-.2H712c.14,0,.2.058.2.2v2.209c0,.146-.058.21-.192.21h-2.372v1.923h2.722c.111,0,.169.064.169.2s-.058.2-.169.2Zm3.987-.012v-4.884c0-.134.07-.192.21-.192s.216.058.216.192v4.884c0,.134-.07.192-.216.192s-.21-.058-.21-.192" transform="translate(-604.008 -289.643)" fill="#35ade3"/>
        <path id="패스_3" data-name="패스 3" d="M781.6,345.163c-.1,0-.169-.058-.169-.2s.064-.2.169-.2h3.73c.1,0,.169.058.169.2s-.064.2-.169.2Zm.157-2.92v-.729c0-.933.74-1.323,1.574-1.323s1.579.39,1.579,1.323v.729c0,.938-.752,1.323-1.579,1.323s-1.574-.385-1.574-1.323m2.722-.023v-.682c0-.676-.548-.95-1.148-.95s-1.142.274-1.142.95v.682c0,.676.542.95,1.142.95s1.148-.274,1.148-.95m1.41,2.949v-4.884c0-.134.076-.192.215-.192s.221.058.221.192v4.884c0,.134-.07.192-.221.192s-.215-.058-.215-.192" transform="translate(-665.51 -289.643)" fill="#35ade3"/>
        <path id="패스_4" data-name="패스 4" d="M856.745,341.974v-.641c0-.781.711-1.148,1.591-1.148s1.6.367,1.6,1.148v.641c0,.775-.723,1.142-1.6,1.142s-1.591-.367-1.591-1.142m.624,3.392c-.146,0-.21-.064-.21-.21v-1.4q0-.192.21-.192c.146,0,.222.064.222.192v1.2h3.771c.111,0,.163.07.163.2s-.052.2-.163.2Zm2.133-3.439v-.554c0-.513-.49-.8-1.166-.8s-1.16.286-1.16.8v.554c0,.519.49.8,1.16.8s1.166-.28,1.166-.8m1.469,1.772v-3.415c0-.14.076-.192.216-.192s.216.052.216.192V343.7c0,.14-.064.192-.216.192s-.216-.053-.216-.192" transform="translate(-729.656 -289.643)" fill="#35ade3"/>
        <path id="패스_5" data-name="패스 5" d="M933.415,342.37a1.42,1.42,0,0,1-1.451.746c-.851,0-1.51-.356-1.51-1.1v-.723c0-.746.658-1.107,1.51-1.107a1.483,1.483,0,0,1,1.4.647h1.253v-.548c0-.14.076-.192.216-.192s.216.053.216.192V343.7c0,.14-.064.192-.216.192s-.216-.053-.216-.192V342.37Zm1.6,2.588c.111,0,.163.07.163.2s-.052.2-.163.2h-3.946c-.146,0-.2-.064-.2-.21v-1.4c0-.128.064-.192.21-.192s.221.064.221.192v1.2Zm-4.126-3c0,.5.443.764,1.078.764s1.078-.268,1.078-.764v-.623c0-.49-.455-.763-1.078-.763s-1.078.274-1.078.763Zm3.736-.734h-1.148v.746h1.148Z" transform="translate(-792.431 -289.642)" fill="#35ade3"/>
        <path id="패스_6" data-name="패스 6" d="M568.9,126.373v-7.954H557.455a1.31,1.31,0,1,1,0-2.62H583.47a1.31,1.31,0,0,1,0,2.62H572.022v7.954a1.568,1.568,0,0,1-3.119,0m-4.242-14.224c-4.024,0-7.018-2.776-7.018-6.363s2.994-6.363,7.018-6.363h11.6c4.024,0,7.018,2.776,7.018,6.363s-2.994,6.363-7.018,6.363Zm11.042-2.62c2.558,0,4.461-1.528,4.461-3.743s-1.9-3.743-4.461-3.743H565.222c-2.558,0-4.461,1.559-4.461,3.743,0,2.215,1.9,3.743,4.461,3.743Z" transform="translate(-473.647 -84.674)" fill="#35ade3"/>
        <path id="패스_7" data-name="패스 7" d="M858.327,104.755v-3.306c0-4.43,3.588-6.738,7.954-6.738,3.182,0,5.958,1.217,7.237,3.618h7.954V95.99a1.568,1.568,0,0,1,3.119,0v18.092a1.568,1.568,0,0,1-3.119,0v-5.989h-8.079c-1.31,2.246-4.024,3.4-7.112,3.4-4.367,0-7.954-2.277-7.954-6.738M884,120.57a1.31,1.31,0,1,1,0,2.62H861.665a1.5,1.5,0,0,1-1.653-1.653v-6.613a1.568,1.568,0,0,1,3.119,0v5.646Zm-22.553-15.94c0,2.807,2.09,4.242,4.866,4.242,2.714,0,4.8-1.435,4.8-4.242V101.6c0-2.807-2.09-4.273-4.8-4.273-2.776,0-4.866,1.466-4.866,4.273Zm20.026-3.681H874.2a2.69,2.69,0,0,1,.031.5v3.306a5.3,5.3,0,0,1-.031.717h7.268Z" transform="translate(-731.003 -80.555)" fill="#35ade3"/>
        <path id="패스_8" data-name="패스 8" d="M31.413,0C14.092,0,0,13.38,0,29.826a28.491,28.491,0,0,0,1.059,7.708,11.074,11.074,0,0,0,9.863,8.116q.428.028.856.028A13.2,13.2,0,0,0,21.284,41.7l5.957,5.923a5.491,5.491,0,0,0,7.645.057l6.979-6.737a17.949,17.949,0,0,0,3.541,1.84,19.993,19.993,0,0,0,9.133.834,27.94,27.94,0,0,1-23.126,11.99,28.146,28.146,0,0,1-17-5.574A2.022,2.022,0,1,0,12,53.273a32.161,32.161,0,0,0,19.418,6.379,32.526,32.526,0,0,0,17.028-4.758A30.411,30.411,0,0,0,59.85,42.513l.3-.635a2.431,2.431,0,0,0-3.507-3.083c-2.171,1.376-7.521,1.123-9.73.236a16.428,16.428,0,0,1-2.035-.968c4.121-4.169,5.984-8.526,5.987-13.869,0,0,0-.006,0-.009,0-6.159-4.07-11.17-9.073-11.17s-9.073,5.011-9.073,11.17c0,5.025,2.076,9.727,6.177,14l-6.819,6.583a1.425,1.425,0,0,1-1.984-.015l-7.615-7.572c-4.6-4.74-6.472-8.507-6.472-13,0-3.862,2.3-7.125,5.029-7.125s5.029,3.263,5.029,7.125a21.8,21.8,0,0,1-2.134,9.464,2.022,2.022,0,1,0,3.65,1.742,25.815,25.815,0,0,0,2.528-11.206c0-6.159-4.07-11.17-9.074-11.17s-9.073,5.011-9.073,11.17c0,6.321,3.122,10.936,6.494,14.628a9.171,9.171,0,0,1-7.268,2.8A7.023,7.023,0,0,1,4.953,36.44a24.446,24.446,0,0,1-.909-6.614c0-14.216,12.277-25.781,27.368-25.781S58.781,15.61,58.781,29.826a2.022,2.022,0,1,0,4.045,0C62.826,13.38,48.734,0,31.413,0M41.792,17.059c2.725,0,5.027,3.26,5.029,7.12,0,0,0,0,0,.005,0,4.322-1.512,7.757-5,11.213-3.4-3.529-5.061-7.211-5.061-11.213,0-3.862,2.3-7.125,5.029-7.125" transform="translate(0 0)" fill="#35ade3"/>
      </g>
    </g>
  </g>
</svg>
