<svg xmlns="http://www.w3.org/2000/svg" xmlns:xlink="http://www.w3.org/1999/xlink" width="60" height="60" viewBox="0 0 60 60">
  <defs>
    <clipPath id="clip-path">
      <rect id="사각형_22549" data-name="사각형 22549" width="55" height="59.598" fill="none"/>
    </clipPath>
  </defs>
  <g id="그룹_49416" data-name="그룹 49416" transform="translate(-1040 -10682)">
    <rect id="사각형_22543" data-name="사각형 22543" width="60" height="60" transform="translate(1040 10682)" fill="none"/>
    <g id="그룹_49415" data-name="그룹 49415" transform="translate(1043 10682)">
      <g id="그룹_49414" data-name="그룹 49414" clip-path="url(#clip-path)">
        <path id="패스_8710" data-name="패스 8710" d="M29.75,16.075a.931.931,0,1,0,0-1.862H12.336a.931.931,0,1,0,0,1.862Z" transform="translate(-0.784 -0.978)"/>
        <path id="패스_8711" data-name="패스 8711" d="M33.463,21.737H8.033a.931.931,0,0,0,0,1.862h25.43a.931.931,0,1,0,0-1.862" transform="translate(-0.488 -1.495)"/>
        <path id="패스_8712" data-name="패스 8712" d="M33.463,27.265H8.033a.931.931,0,1,0,0,1.862h25.43a.931.931,0,0,0,0-1.862" transform="translate(-0.488 -1.875)"/>
        <path id="패스_8713" data-name="패스 8713" d="M33.463,32.791H8.033a.931.931,0,0,0,0,1.862h25.43a.931.931,0,0,0,0-1.862" transform="translate(-0.488 -2.255)"/>
        <path id="패스_8714" data-name="패스 8714" d="M34.394,39.249a.931.931,0,0,0-.931-.931H8.033a.931.931,0,0,0,0,1.862h25.43a.931.931,0,0,0,.931-.931" transform="translate(-0.488 -2.635)"/>
        <path id="패스_8715" data-name="패스 8715" d="M8.031,43.849a.931.931,0,1,0,0,1.862H30.659a.931.931,0,1,0,0-1.862Z" transform="translate(-0.488 -3.016)"/>
        <path id="패스_8716" data-name="패스 8716" d="M28.619,50.3a.931.931,0,0,0-.931-.931H8.03a.931.931,0,0,0,0,1.862H27.687a.931.931,0,0,0,.931-.931" transform="translate(-0.488 -3.395)"/>
        <path id="패스_8717" data-name="패스 8717" d="M24.23,54.7H1.862V9.973H9.052a.931.931,0,0,0,.931-.931V1.862H38.653v23.6a.931.931,0,1,0,1.862,0V.931A.931.931,0,0,0,39.585,0H9.052a.924.924,0,0,0-.667.285L.289,8.373A.923.923,0,0,0,0,9.042V55.629a.931.931,0,0,0,.931.931h23.3a.931.931,0,0,0,0-1.862M3.185,8.111,8.12,3.18V8.111Z"/>
        <path id="패스_8718" data-name="패스 8718" d="M56.987,24.9a.931.931,0,0,0-.434-.566l-1.673-.966,1.465-2.538a2.179,2.179,0,0,0-.8-2.973l-1.564-.9a2.178,2.178,0,0,0-2.973.8L31.375,51.766a.916.916,0,0,0-.1.239l-1.9,7.582a.931.931,0,0,0,1.55.9l5.617-5.434a.963.963,0,0,0,.159-.2L53.948,24.985l.867.5L48.094,37.128a.931.931,0,1,0,1.613.931L56.894,25.61a.929.929,0,0,0,.093-.707m-4.363-6.218a.313.313,0,0,1,.428-.115l1.564.9a.313.313,0,0,1,.115.428l-1.465,2.538-2.107-1.217ZM35.16,53.8l-3.182,3.078,1.075-4.295L50.227,22.836l2.108,1.217Z" transform="translate(-2.019 -1.146)" fill="#35ade3"/>
      </g>
    </g>
  </g>
</svg>
